<svg class="animated" id="freepik_stories-subscriptions" xmlns="http://www.w3.org/2000/svg" viewBox="0 0 500 500" version="1.1" xmlns:xlink="http://www.w3.org/1999/xlink" xmlns:svgjs="http://svgjs.com/svgjs"><style>svg#freepik_stories-subscriptions:not(.animated) .animable {opacity: 0;}svg#freepik_stories-subscriptions.animated #freepik--background-complete--inject-9 {animation: 1s 1 forwards cubic-bezier(.36,-0.01,.5,1.38) slideUp;animation-delay: 0s;}svg#freepik_stories-subscriptions.animated #freepik--Shadow--inject-9 {animation: 1s 1 forwards cubic-bezier(.36,-0.01,.5,1.38) fadeIn;animation-delay: 0s;}svg#freepik_stories-subscriptions.animated #freepik--Icons--inject-9 {animation: 1s 1 forwards cubic-bezier(.36,-0.01,.5,1.38) fadeIn;animation-delay: 0s;}svg#freepik_stories-subscriptions.animated #freepik--Device--inject-9 {animation: 1s 1 forwards cubic-bezier(.36,-0.01,.5,1.38) slideDown;animation-delay: 0s;}svg#freepik_stories-subscriptions.animated #freepik--speech-bubble--inject-9 {animation: 1s 1 forwards cubic-bezier(.36,-0.01,.5,1.38) lightSpeedLeft;animation-delay: 0s;}svg#freepik_stories-subscriptions.animated #freepik--Character--inject-9 {animation: 1s 1 forwards cubic-bezier(.36,-0.01,.5,1.38) lightSpeedRight;animation-delay: 0s;}            @keyframes slideUp {                0% {                    opacity: 0;                    transform: translateY(30px);                }                100% {                    opacity: 1;                    transform: inherit;                }            }                    @keyframes fadeIn {                0% {                    opacity: 0;                }                100% {                    opacity: 1;                }            }                    @keyframes slideDown {                0% {                    opacity: 0;                    transform: translateY(-30px);                }                100% {                    opacity: 1;                    transform: translateY(0);                }            }                    @keyframes lightSpeedLeft {              from {                transform: translate3d(-50%, 0, 0) skewX(20deg);                opacity: 0;              }              60% {                transform: skewX(-10deg);                opacity: 1;              }              80% {                transform: skewX(2deg);              }              to {                opacity: 1;                transform: translate3d(0, 0, 0);              }            }                    @keyframes lightSpeedRight {              from {                transform: translate3d(50%, 0, 0) skewX(-20deg);                opacity: 0;              }              60% {                transform: skewX(10deg);                opacity: 1;              }              80% {                transform: skewX(-2deg);              }              to {                opacity: 1;                transform: translate3d(0, 0, 0);              }            }        </style><g id="freepik--background-complete--inject-9" class="animable" style="transform-origin: 250px 228.23px;"><rect y="382.4" width="500" height="0.25" style="fill: rgb(235, 235, 235); transform-origin: 250px 382.525px;" id="elgha9xunmx6c" class="animable"></rect><rect x="416.78" y="398.49" width="33.12" height="0.25" style="fill: rgb(235, 235, 235); transform-origin: 433.34px 398.615px;" id="elqpm3rycghza" class="animable"></rect><rect x="322.53" y="401.21" width="8.69" height="0.25" style="fill: rgb(235, 235, 235); transform-origin: 326.875px 401.335px;" id="el4ucxg5zt0mv" class="animable"></rect><rect x="396.59" y="389.21" width="19.19" height="0.25" style="fill: rgb(235, 235, 235); transform-origin: 406.185px 389.335px;" id="elvwr1uzb2hje" class="animable"></rect><rect x="52.46" y="390.89" width="43.19" height="0.25" style="fill: rgb(235, 235, 235); transform-origin: 74.055px 391.015px;" id="el42sh52fq1rf" class="animable"></rect><rect x="104.56" y="390.89" width="6.33" height="0.25" style="fill: rgb(235, 235, 235); transform-origin: 107.725px 391.015px;" id="eljkh7cvzmwad" class="animable"></rect><rect x="131.47" y="395.11" width="93.68" height="0.25" style="fill: rgb(235, 235, 235); transform-origin: 178.31px 395.235px;" id="elmpfhuphmnu" class="animable"></rect><path d="M237,337.8H43.91a5.71,5.71,0,0,1-5.7-5.71V60.66A5.71,5.71,0,0,1,43.91,55H237a5.71,5.71,0,0,1,5.71,5.71V332.09A5.71,5.71,0,0,1,237,337.8ZM43.91,55.2a5.46,5.46,0,0,0-5.45,5.46V332.09a5.46,5.46,0,0,0,5.45,5.46H237a5.47,5.47,0,0,0,5.46-5.46V60.66A5.47,5.47,0,0,0,237,55.2Z" style="fill: rgb(235, 235, 235); transform-origin: 140.46px 196.4px;" id="eliahyoetxu0g" class="animable"></path><path d="M453.31,337.8H260.21a5.72,5.72,0,0,1-5.71-5.71V60.66A5.72,5.72,0,0,1,260.21,55h193.1A5.71,5.71,0,0,1,459,60.66V332.09A5.71,5.71,0,0,1,453.31,337.8ZM260.21,55.2a5.47,5.47,0,0,0-5.46,5.46V332.09a5.47,5.47,0,0,0,5.46,5.46h193.1a5.47,5.47,0,0,0,5.46-5.46V60.66a5.47,5.47,0,0,0-5.46-5.46Z" style="fill: rgb(235, 235, 235); transform-origin: 356.75px 196.4px;" id="el2aa0iar3ehm" class="animable"></path><rect x="77.46" y="96.11" width="138.79" height="138.79" style="fill: rgb(224, 224, 224); transform-origin: 146.855px 165.505px;" id="elqc9dxjldmp9" class="animable"></rect><rect x="82.55" y="101.1" width="128.68" height="128.68" style="fill: rgb(235, 235, 235); transform-origin: 146.89px 165.44px;" id="elmlrt4g0ecmp" class="animable"></rect><polygon points="122.81 101.1 88.39 229.72 88.37 229.78 82.55 229.78 82.55 188.18 105.86 101.1 122.81 101.1" style="fill: rgb(250, 250, 250); transform-origin: 102.68px 165.44px;" id="elskd5yd0zkz" class="animable"></polygon><polygon points="139.01 101.1 104.59 229.72 104.58 229.78 95.72 229.78 95.74 229.72 130.16 101.1 139.01 101.1" style="fill: rgb(250, 250, 250); transform-origin: 117.365px 165.44px;" id="eldqlwla7y0e" class="animable"></polygon><polygon points="211.24 101.1 211.24 139.89 187.19 229.72 187.18 229.78 170.23 229.78 170.25 229.72 204.67 101.1 211.24 101.1" style="fill: rgb(250, 250, 250); transform-origin: 190.735px 165.44px;" id="elafuzdqoerdt" class="animable"></polygon><polygon points="211.24 167.34 211.24 200.43 203.39 229.72 203.37 229.78 194.52 229.78 194.53 229.72 211.24 167.34" style="fill: rgb(255, 255, 255); transform-origin: 202.88px 198.56px;" id="el14m7zyykctr" class="animable"></polygon><rect x="143.72" y="97.83" width="6.27" height="135.35" style="fill: rgb(224, 224, 224); transform-origin: 146.855px 165.505px;" id="elesdgtioq1kq" class="animable"></rect><rect x="178.86" y="97.83" width="3.03" height="135.35" style="fill: rgb(224, 224, 224); transform-origin: 180.375px 165.505px;" id="elf9eqp4rv39l" class="animable"></rect><rect x="111.82" y="97.83" width="3.03" height="135.35" style="fill: rgb(224, 224, 224); transform-origin: 113.335px 165.505px;" id="elm4we64wt7t" class="animable"></rect><g id="el1or2eftinsi"><rect x="145.34" y="64.15" width="3.03" height="135.35" style="fill: rgb(224, 224, 224); transform-origin: 146.855px 131.825px; transform: rotate(90deg);" class="animable"></rect></g><g id="elqxn7sl6414j"><rect x="145.34" y="97.83" width="3.03" height="135.35" style="fill: rgb(224, 224, 224); transform-origin: 146.855px 165.505px; transform: rotate(90deg);" class="animable"></rect></g><g id="elpl80kyr0tgf"><rect x="145.34" y="131.51" width="3.03" height="135.35" style="fill: rgb(224, 224, 224); transform-origin: 146.855px 199.185px; transform: rotate(90deg);" class="animable"></rect></g><polygon points="365.65 302.24 365.65 320.24 373.25 325.77 337.75 325.77 349.09 321.57 349.09 303.5 365.65 302.24" style="fill: rgb(224, 224, 224); transform-origin: 355.5px 314.005px;" id="elul3ho4onb4m" class="animable"></polygon><path d="M269.9,325.25V382H428.35v-56.7Zm2.86,3.67h124v18.54h-124Z" style="fill: rgb(224, 224, 224); transform-origin: 349.125px 353.625px;" id="eldc0wi7lz25l" class="animable"></path><path d="M269.9,325.25V382H400.59v-56.7Zm2.86,3.67h124v18.54h-124Z" style="fill: rgb(235, 235, 235); transform-origin: 335.245px 353.625px;" id="elcc41qgjl53d" class="animable"></path><g id="el93byq8a5x"><rect x="272.75" y="328.93" width="25.56" height="18.53" style="fill: rgb(224, 224, 224); transform-origin: 285.53px 338.195px; transform: rotate(180deg);" class="animable"></rect></g><g id="el54w8wocujrw"><rect x="365.15" y="338.19" width="31.62" height="9.26" style="fill: rgb(224, 224, 224); transform-origin: 380.96px 342.82px; transform: rotate(180deg);" class="animable"></rect></g><g id="elasph0lu4c89"><rect x="339.01" y="341.95" width="23.81" height="5.5" style="fill: rgb(224, 224, 224); transform-origin: 350.915px 344.7px; transform: rotate(180deg);" class="animable"></rect></g><g id="el6u3u0d9byn"><rect x="310.83" y="336.2" width="22.68" height="11.26" style="fill: rgb(224, 224, 224); transform-origin: 322.17px 341.83px; transform: rotate(180deg);" class="animable"></rect></g><polygon points="374.3 351.49 374.98 353.71 384.08 353.71 384.76 351.49 396.77 351.49 396.77 376.09 356.89 376.09 356.89 351.49 374.3 351.49" style="fill: rgb(224, 224, 224); transform-origin: 376.83px 363.79px;" id="elns3urgeml0k" class="animable"></polygon><polygon points="326.9 351.49 327.58 353.71 336.68 353.71 337.36 351.49 354.77 351.49 354.77 376.09 314.88 376.09 314.88 351.49 326.9 351.49" style="fill: rgb(224, 224, 224); transform-origin: 334.825px 363.79px;" id="elc9fy14d4j4k" class="animable"></polygon><polygon points="290.28 351.49 290.96 353.71 300.06 353.71 300.74 351.49 312.76 351.49 312.76 376.09 272.87 376.09 272.87 351.49 290.28 351.49" style="fill: rgb(224, 224, 224); transform-origin: 292.815px 363.79px;" id="ela4zrgosl68" class="animable"></polygon><g id="elakwvuvmf2d"><rect x="288.6" y="236.37" width="126.82" height="76.63" rx="3.53" style="fill: rgb(224, 224, 224); transform-origin: 352.01px 274.685px; transform: rotate(180deg);" class="animable"></rect></g><g id="eljbt5lcoh5n8"><rect x="285.62" y="236.37" width="126.82" height="76.63" rx="3.53" style="fill: rgb(230, 230, 230); transform-origin: 349.03px 274.685px; transform: rotate(180deg);" class="animable"></rect></g><g id="elkd4vb4p8fd"><rect x="314.44" y="215" width="69.18" height="119.37" style="fill: rgb(240, 240, 240); transform-origin: 349.03px 274.685px; transform: rotate(90deg);" class="animable"></rect></g><g id="elen0pncn5v6k"><rect x="377.02" y="146.88" width="29.68" height="42" style="fill: rgb(224, 224, 224); transform-origin: 391.86px 167.88px; transform: rotate(-90deg);" class="animable"></rect></g><g id="eljp1tqb3tn4"><rect x="378.96" y="148.85" width="25.81" height="38.05" style="fill: rgb(235, 235, 235); transform-origin: 391.865px 167.875px; transform: rotate(-90deg);" class="animable"></rect></g><g id="elfoe7i0tuekf"><rect x="362.45" y="109.59" width="29.68" height="42" style="fill: rgb(224, 224, 224); transform-origin: 377.29px 130.59px; transform: rotate(-90deg);" class="animable"></rect></g><g id="elk1r3w4y5duh"><rect x="364.39" y="111.56" width="25.81" height="38.05" style="fill: rgb(235, 235, 235); transform-origin: 377.295px 130.585px; transform: rotate(-90deg);" class="animable"></rect></g><g id="el7cif7lxgylx"><rect x="336.17" y="153.04" width="26.73" height="37.82" style="fill: rgb(224, 224, 224); transform-origin: 349.535px 171.95px; transform: rotate(180deg);" class="animable"></rect></g><g id="el51oeom0i7w2"><rect x="337.91" y="154.82" width="23.24" height="34.26" style="fill: rgb(235, 235, 235); transform-origin: 349.53px 171.95px; transform: rotate(180deg);" class="animable"></rect></g><g id="elqbiw5q4s23"><rect x="320.96" y="103.43" width="29.68" height="42" style="fill: rgb(224, 224, 224); transform-origin: 335.8px 124.43px; transform: rotate(180deg);" class="animable"></rect></g><g id="el9skq558xlke"><rect x="322.9" y="105.4" width="25.81" height="38.05" style="fill: rgb(235, 235, 235); transform-origin: 335.805px 124.425px; transform: rotate(180deg);" class="animable"></rect></g><g id="elgwa2n811r66"><rect x="299.03" y="148.22" width="23.24" height="32.89" style="fill: rgb(224, 224, 224); transform-origin: 310.65px 164.665px; transform: rotate(90deg);" class="animable"></rect></g><g id="elhylhef5tprl"><rect x="300.54" y="149.76" width="20.21" height="29.8" style="fill: rgb(235, 235, 235); transform-origin: 310.645px 164.66px; transform: rotate(90deg);" class="animable"></rect></g><path d="M186.33,261.86H96.8a17.59,17.59,0,0,0-17.59,17.58v69.92H203.92V279.44A17.58,17.58,0,0,0,186.33,261.86Z" style="fill: rgb(230, 230, 230); transform-origin: 141.565px 305.61px;" id="ell5jkvu4jkb" class="animable"></path><path d="M230.39,313.68h-16a10.45,10.45,0,0,0-10.45,10.45V382h36.92V324.13A10.45,10.45,0,0,0,230.39,313.68Z" style="fill: rgb(224, 224, 224); transform-origin: 222.4px 347.84px;" id="ela8egtusjx5" class="animable"></path><path d="M230.39,313.68h-.34a10.45,10.45,0,0,0-10.45,10.45V382h21.24V324.13A10.45,10.45,0,0,0,230.39,313.68Z" style="fill: rgb(235, 235, 235); transform-origin: 230.22px 347.84px;" id="elwhru4w3bxkm" class="animable"></path><rect x="92.26" y="355.39" width="122.88" height="26.56" style="fill: rgb(230, 230, 230); transform-origin: 153.7px 368.67px;" id="eljfybrrmcqm" class="animable"></rect><rect x="86.18" y="331.1" width="139.75" height="27.87" rx="10.62" style="fill: rgb(245, 245, 245); transform-origin: 156.055px 345.035px;" id="elaaceyzv1o3f" class="animable"></rect><rect x="86.37" y="331.1" width="35.95" height="27.87" rx="10.62" style="fill: rgb(224, 224, 224); isolation: isolate; transform-origin: 104.345px 345.035px;" id="el9geiodyt8n4" class="animable"></rect><path d="M95.41,313.68h-16a10.45,10.45,0,0,0-10.45,10.45V382h36.92V324.13A10.45,10.45,0,0,0,95.41,313.68Z" style="fill: rgb(224, 224, 224); transform-origin: 87.42px 347.84px;" id="el04ahoiytps57" class="animable"></path><path d="M95.41,313.68h-.34a10.45,10.45,0,0,0-10.45,10.45V382h21.24V324.13A10.45,10.45,0,0,0,95.41,313.68Z" style="fill: rgb(240, 240, 240); transform-origin: 95.24px 347.84px;" id="elirb6h4hvltq" class="animable"></path></g><g id="freepik--Shadow--inject-9" class="animable" style="transform-origin: 250px 416.24px;"><ellipse id="freepik--path--inject-9" cx="250" cy="416.24" rx="193.89" ry="11.32" style="fill: rgb(245, 245, 245); transform-origin: 250px 416.24px;" class="animable"></ellipse></g><g id="freepik--Icons--inject-9" class="animable" style="transform-origin: 182.447px 230.788px;"><path d="M113.33,407.56a26.85,26.85,0,0,1-9.4-1.68.5.5,0,0,1,.34-.94A26.12,26.12,0,0,0,118.76,406a.5.5,0,0,1,.59.39.49.49,0,0,1-.38.59A27.42,27.42,0,0,1,113.33,407.56Zm8.43-1.37a.5.5,0,0,1-.16-1,26.76,26.76,0,0,0,4.48-2,.5.5,0,0,1,.68.19.51.51,0,0,1-.19.68,27.19,27.19,0,0,1-4.65,2.06ZM95.6,400.77a.55.55,0,0,1-.34-.13l-.3-.28c-.4-.37-.79-.75-1.16-1.14a.5.5,0,0,1,.72-.69c.36.37.73.74,1.12,1.1l.29.26a.5.5,0,0,1,0,.71A.51.51,0,0,1,95.6,400.77Zm41.1-7.15a.53.53,0,0,1-.24-.06.51.51,0,0,1-.2-.68c.31-.57.6-1.16.87-1.76a.5.5,0,0,1,.91.41q-.42.93-.9,1.83A.51.51,0,0,1,136.7,393.62Zm-49.39-7.36a.51.51,0,0,1-.49-.4,27.76,27.76,0,0,1-.53-5.06.51.51,0,0,1,.49-.51h0a.5.5,0,0,1,.5.5,26.57,26.57,0,0,0,.51,4.87.51.51,0,0,1-.39.59Zm52.54-4.11h0a.51.51,0,0,1-.48-.52c0-.37,0-.74,0-1.11a26.06,26.06,0,0,0-3.47-13,.52.52,0,0,1,.19-.69.51.51,0,0,1,.68.19,27,27,0,0,1,3.6,13.5c0,.39,0,.77,0,1.15A.5.5,0,0,1,139.85,382.15ZM86.93,378.3h-.05a.5.5,0,0,1-.45-.55,26.88,26.88,0,0,1,5.66-14,.51.51,0,0,1,.71-.09.52.52,0,0,1,.08.71,25.94,25.94,0,0,0-5.46,13.45A.49.49,0,0,1,86.93,378.3Zm47.77-13a.51.51,0,0,1-.41-.2,25.1,25.1,0,0,0-3.27-3.65,25.85,25.85,0,0,0-7.18-4.73.5.5,0,1,1,.4-.91,26.7,26.7,0,0,1,7.46,4.9,28.34,28.34,0,0,1,3.4,3.79.51.51,0,0,1-.11.7A.46.46,0,0,1,134.7,365.26ZM100,358.06a.49.49,0,0,1-.43-.24.51.51,0,0,1,.18-.69q.89-.51,1.8-1a.5.5,0,0,1,.43.91c-.58.28-1.16.59-1.73.92A.54.54,0,0,1,100,358.06Zm21.24-2.39a.36.36,0,0,1-.14,0,27,27,0,0,0-4.8-1,.5.5,0,1,1,.12-1,26.32,26.32,0,0,1,5,1.05.49.49,0,0,1,.33.62A.48.48,0,0,1,121.23,355.67Z" style="fill: rgb(106, 136, 122); transform-origin: 113.33px 380.613px;" id="elrniofg0q0gk" class="animable"></path><g id="elw4agifokmer"><circle cx="113.33" cy="380.52" r="21.52" style="fill: rgb(106, 136, 122); transform-origin: 113.33px 380.52px; transform: rotate(-89.31deg);" class="animable"></circle></g><g id="elk4idz43gcia"><circle cx="113.33" cy="380.52" r="21.52" style="fill: rgb(255, 255, 255); opacity: 0.8; isolation: isolate; transform-origin: 113.33px 380.52px; transform: rotate(-89.31deg);" class="animable"></circle></g><path d="M123.88,389.89h-21.1a2.84,2.84,0,0,1-2.84-2.84V374a2.85,2.85,0,0,1,2.84-2.85h21.1a2.86,2.86,0,0,1,2.85,2.85v13.06A2.85,2.85,0,0,1,123.88,389.89Zm-21.1-16.75a.85.85,0,0,0-.84.85v13.06a.85.85,0,0,0,.84.84h21.1a.85.85,0,0,0,.85-.84V374a.85.85,0,0,0-.85-.85Z" style="fill: rgb(106, 136, 122); transform-origin: 113.335px 380.52px;" id="el22zhhkps1nlh" class="animable"></path><path d="M113.33,380.57a4,4,0,0,1-1.84-.45l-10.79-5.69a.5.5,0,1,1,.47-.88L112,379.23a3,3,0,0,0,2.74,0l10.79-5.68a.5.5,0,1,1,.47.88l-10.79,5.69A4,4,0,0,1,113.33,380.57Z" style="fill: rgb(106, 136, 122); transform-origin: 113.35px 377.022px;" id="elt5h8iimiuyh" class="animable"></path><path d="M276,111.32h0a27.07,27.07,0,0,1-13.31-3.51.49.49,0,0,1-.19-.68.51.51,0,0,1,.68-.19A26.16,26.16,0,0,0,276,110.32c.43,0,.87,0,1.31,0a.52.52,0,0,1,.53.47.5.5,0,0,1-.48.53C276.88,111.31,276.43,111.32,276,111.32Zm4.29-.35a.5.5,0,0,1-.08-1,25.38,25.38,0,0,0,4.73-1.25,26.06,26.06,0,0,0,7.49-4.25.49.49,0,0,1,.7.07.5.5,0,0,1-.07.7,27.06,27.06,0,0,1-7.77,4.42,27.46,27.46,0,0,1-4.92,1.3Zm14.66-7.64a.49.49,0,0,1-.35-.14.5.5,0,0,1,0-.71,25.73,25.73,0,0,0,3.07-3.81.5.5,0,0,1,.69-.14.51.51,0,0,1,.15.7,27.63,27.63,0,0,1-3.2,4A.51.51,0,0,1,294.94,103.33Zm-39.63-1.87a.51.51,0,0,1-.39-.19c-.42-.52-.83-1.07-1.22-1.63a.5.5,0,1,1,.82-.57c.38.54.77,1.07,1.18,1.57a.5.5,0,0,1-.39.82Zm-5.88-15.65a.5.5,0,0,1-.5-.48c0-.35,0-.7,0-1a27.23,27.23,0,0,1,.3-4,.51.51,0,0,1,.57-.42.5.5,0,0,1,.42.57,26.56,26.56,0,0,0-.29,3.88c0,.34,0,.67,0,1a.5.5,0,0,1-.48.52Zm53.07-.48h0a.52.52,0,0,1-.49-.51c0-.19,0-.37,0-.55,0-.47,0-.94,0-1.42a.5.5,0,0,1,.47-.52.49.49,0,0,1,.53.47c0,.49,0,1,0,1.47,0,.19,0,.38,0,.57A.49.49,0,0,1,302.5,85.33Zm-52.18-7.44h-.13a.51.51,0,0,1-.35-.62,27.1,27.1,0,0,1,7.81-12.89.48.48,0,0,1,.7,0,.49.49,0,0,1,0,.7,25.94,25.94,0,0,0-7.52,12.42A.5.5,0,0,1,250.32,77.89Zm49.76-4.21a.51.51,0,0,1-.46-.29,25.93,25.93,0,0,0-9.5-11,.49.49,0,0,1-.15-.69.5.5,0,0,1,.69-.15A26.87,26.87,0,0,1,300.53,73a.5.5,0,0,1-.25.66A.46.46,0,0,1,300.08,73.68ZM287.78,61a.59.59,0,0,1-.22,0A25.83,25.83,0,0,0,283,59.2a.5.5,0,1,1,.27-1A27.91,27.91,0,0,1,288,60.06a.5.5,0,0,1,.22.67A.49.49,0,0,1,287.78,61Zm-21.34-1a.5.5,0,0,1-.47-.32.51.51,0,0,1,.28-.65l.4-.14c.51-.19,1-.36,1.53-.52a.5.5,0,0,1,.63.34.5.5,0,0,1-.34.62c-.49.15-1,.31-1.48.5l-.37.14A.57.57,0,0,1,266.44,60Z" style="fill: rgb(106, 136, 122); transform-origin: 275.98px 84.7509px;" id="eldd6ywc31ms" class="animable"></path><g id="elqovms1wlhx"><circle cx="275.96" cy="84.27" r="21.52" style="fill: rgb(106, 136, 122); transform-origin: 275.96px 84.27px; transform: rotate(-38.76deg);" class="animable"></circle></g><g id="el0vtv3rp8s9uh"><circle cx="275.96" cy="84.27" r="21.52" style="fill: rgb(255, 255, 255); opacity: 0.8; isolation: isolate; transform-origin: 275.96px 84.27px; transform: rotate(-38.76deg);" class="animable"></circle></g><path d="M276,97.14A12.94,12.94,0,1,1,283,95,12.84,12.84,0,0,1,276,97.14Zm0-24.85a11.92,11.92,0,1,0,11.93,11.93A11.94,11.94,0,0,0,276,72.29Z" style="fill: rgb(106, 136, 122); transform-origin: 275.871px 84.2006px;" id="elfho3xff4gwc" class="animable"></path><path d="M279.83,82.42A3.87,3.87,0,1,1,276,78.56,3.87,3.87,0,0,1,279.83,82.42Z" style="fill: rgb(106, 136, 122); transform-origin: 275.96px 82.4298px;" id="ellp72330j3j" class="animable"></path><path d="M282.75,89.65v5a12.42,12.42,0,0,1-13.58,0v-5a4.28,4.28,0,0,1,4.28-4.28h5A4.28,4.28,0,0,1,282.75,89.65Z" style="fill: rgb(106, 136, 122); transform-origin: 275.96px 91.0202px;" id="elo8seg61kul" class="animable"></path><rect x="262.53" y="70.79" width="7.86" height="7.86" rx="1.42" style="fill: rgb(106, 136, 122); transform-origin: 266.46px 74.72px;" id="ele5uyxwlfr4n" class="animable"></rect><rect x="264.25" y="74.22" width="4.42" height="1" style="fill: rgb(255, 255, 255); transform-origin: 266.46px 74.72px;" id="elhqyabfttf4w" class="animable"></rect><rect x="265.96" y="72.51" width="1" height="4.42" style="fill: rgb(255, 255, 255); transform-origin: 266.46px 74.72px;" id="elwbxaca97c6" class="animable"></rect><path d="M92.36,193.78a.49.49,0,0,1-.48-.37.5.5,0,0,1,.35-.61c.63-.16,1.27-.35,1.88-.56a.5.5,0,1,1,.33.95c-.65.22-1.3.41-2,.58Zm-14.79-.43a.45.45,0,0,1-.16,0,27.52,27.52,0,0,1-4.67-2,.5.5,0,1,1,.48-.88,25.57,25.57,0,0,0,4.5,1.94.5.5,0,0,1-.15,1Zm-7.13-3.57a.52.52,0,0,1-.29-.09,27,27,0,0,1-9.42-11.77.5.5,0,1,1,.92-.38,26,26,0,0,0,9.08,11.33.51.51,0,0,1,.12.7A.49.49,0,0,1,70.44,189.78Zm32.47-1.48a.52.52,0,0,1-.38-.17.51.51,0,0,1,.06-.71,26,26,0,0,0,8-12.11.5.5,0,1,1,1,.3,27,27,0,0,1-8.31,12.57A.52.52,0,0,1,102.91,188.3Zm8.89-15.25h-.09a.5.5,0,0,1-.4-.58,26.53,26.53,0,0,0,.45-4.88,25.81,25.81,0,0,0-1.42-8.51.5.5,0,0,1,1-.32,26.91,26.91,0,0,1,1.47,8.83,27.62,27.62,0,0,1-.47,5.06A.49.49,0,0,1,111.8,173.05ZM59.18,168.5a.51.51,0,0,1-.5-.5v-.42c0-.54,0-1.08,0-1.61a.49.49,0,0,1,.52-.47.5.5,0,0,1,.47.53c0,.51,0,1,0,1.55V168a.5.5,0,0,1-.49.51Zm50.5-11.86a.49.49,0,0,1-.45-.29,27.48,27.48,0,0,0-2.52-4.2.5.5,0,0,1,.1-.7.51.51,0,0,1,.7.11,26.81,26.81,0,0,1,2.62,4.36.5.5,0,0,1-.24.67A.54.54,0,0,1,109.68,156.64Zm-45.49-4.08a.53.53,0,0,1-.3-.09.51.51,0,0,1-.11-.7,27.12,27.12,0,0,1,3.35-3.83.5.5,0,1,1,.69.73,26.28,26.28,0,0,0-3.23,3.68A.49.49,0,0,1,64.19,152.56Zm5.57-5.69a.5.5,0,0,1-.3-.9,27,27,0,0,1,14.1-5.35.52.52,0,0,1,.54.46.5.5,0,0,1-.46.54,25.94,25.94,0,0,0-13.58,5.15A.47.47,0,0,1,69.76,146.87Zm25.61-3.53a.57.57,0,0,1-.18,0c-.61-.24-1.24-.45-1.86-.64A.51.51,0,0,1,93,142a.5.5,0,0,1,.62-.33c.65.2,1.3.42,1.93.67a.5.5,0,0,1-.18,1Z" style="fill: rgb(106, 136, 122); transform-origin: 85.745px 167.2px;" id="el5zllvy5vozh" class="animable"></path><g id="elw70f6zx01zj"><circle cx="85.72" cy="167.58" r="21.51" style="fill: rgb(106, 136, 122); transform-origin: 85.72px 167.58px; transform: rotate(-7.02deg);" class="animable"></circle></g><g id="el50r4ljilulo"><circle cx="85.72" cy="167.58" r="21.51" style="fill: rgb(255, 255, 255); opacity: 0.8; isolation: isolate; transform-origin: 85.72px 167.58px; transform: rotate(-7.02deg);" class="animable"></circle></g><path d="M72.59,164.47H76a.85.85,0,0,1,.85.85v11.13a.85.85,0,0,1-.85.84H72.59Z" style="fill: rgb(106, 136, 122); transform-origin: 74.72px 170.88px;" id="ely6bj9omaxcc" class="animable"></path><path d="M92.39,178.16h-10a5.36,5.36,0,0,1-4.2-2H74.72a.5.5,0,0,1-.5-.5.5.5,0,0,1,.5-.5h3.7a.52.52,0,0,1,.41.21,4.36,4.36,0,0,0,3.54,1.83h10a2.74,2.74,0,0,0,2.74-2.74v-5.23a.52.52,0,0,1,.14-.36,3.46,3.46,0,0,0,1.07-2.48v-2a1.46,1.46,0,0,0-1.46-1.47H85.82a.5.5,0,0,1-.5-.5v-6.57a2.7,2.7,0,0,0-2.2-2.65c-.22,6.38-4.1,13.1-4.27,13.39a.48.48,0,0,1-.43.25h-3.7a.5.5,0,0,1,0-1h3.41c.72-1.31,4-7.58,4-13.19a.5.5,0,0,1,.5-.5,3.7,3.7,0,0,1,3.69,3.7v6.07h8.56a2.47,2.47,0,0,1,2.46,2.47v2a4.39,4.39,0,0,1-1.21,3v5A3.75,3.75,0,0,1,92.39,178.16Z" style="fill: rgb(106, 136, 122); transform-origin: 85.78px 165.155px;" id="elt93btau10a" class="animable"></path><path d="M235.63,282.11h-.08c-.54-.08-1.07-.18-1.61-.29a31.85,31.85,0,0,1-3.33-.85.5.5,0,0,1,.3-1,33.07,33.07,0,0,0,3.22.83c.53.11,1.05.2,1.57.28a.5.5,0,0,1-.07,1Zm14.81-1.22a.5.5,0,0,1-.48-.35.51.51,0,0,1,.32-.63c.63-.2,1.24-.42,1.85-.66a.5.5,0,0,1,.65.28.48.48,0,0,1-.28.64c-.62.25-1.26.48-1.91.7ZM228,280a.71.71,0,0,1-.2,0A32.84,32.84,0,0,1,215.58,271a.5.5,0,0,1,.77-.65A31.74,31.74,0,0,0,228.14,279a.49.49,0,0,1,.27.65A.51.51,0,0,1,228,280Zm32.94-4.8a.5.5,0,0,1-.38-.19.49.49,0,0,1,.07-.7,31.72,31.72,0,0,0,8.85-11.65.5.5,0,0,1,.65-.26.5.5,0,0,1,.26.66,32.65,32.65,0,0,1-9.13,12A.47.47,0,0,1,260.89,275.15Zm-50.13-12.48a.5.5,0,0,1-.46-.31c-.26-.62-.5-1.26-.72-1.9a.49.49,0,0,1,.3-.63.5.5,0,0,1,.64.31c.22.62.45,1.23.7,1.84a.49.49,0,0,1-.27.65A.43.43,0,0,1,210.76,262.67Zm60.2-2.15-.16,0a.5.5,0,0,1-.31-.63,32,32,0,0,0,1-3.73c.07-.35.14-.7.2-1a.5.5,0,0,1,1,.16c-.06.36-.12.72-.2,1.08a33.37,33.37,0,0,1-1,3.84A.51.51,0,0,1,271,260.52ZM208.58,246h-.07a.51.51,0,0,1-.43-.56c.1-.72.23-1.45.37-2.16a34,34,0,0,1,1.39-4.88.5.5,0,0,1,.94.35,32,32,0,0,0-1.35,4.73c-.14.69-.26,1.39-.35,2.09A.51.51,0,0,1,208.58,246Zm62.62-5.17a.51.51,0,0,1-.48-.35q-.29-.94-.63-1.86a.5.5,0,0,1,.29-.65.51.51,0,0,1,.64.29q.36,1,.66,1.92a.51.51,0,0,1-.33.63Zm-59.72-4.51a.54.54,0,0,1-.21-.05.5.5,0,0,1-.24-.67,32.79,32.79,0,0,1,9.53-11.71.5.5,0,0,1,.61.8A31.75,31.75,0,0,0,211.93,236,.49.49,0,0,1,211.48,236.33Zm54.15-6a.49.49,0,0,1-.39-.19,31.68,31.68,0,0,0-11.5-9,.49.49,0,0,1-.24-.66.5.5,0,0,1,.66-.25A32.83,32.83,0,0,1,266,229.48a.5.5,0,0,1-.09.7A.45.45,0,0,1,265.63,230.29Zm-36-10.26a.51.51,0,0,1-.17-1c.63-.22,1.28-.43,1.93-.62a.5.5,0,0,1,.62.34.51.51,0,0,1-.34.62c-.63.18-1.26.38-1.87.61Zm21.56-.05a.45.45,0,0,1-.16,0,32.28,32.28,0,0,0-4.23-1.17l-.52-.1a.5.5,0,0,1,.18-1l.54.1a32.32,32.32,0,0,1,4.36,1.21.5.5,0,0,1,.31.63A.51.51,0,0,1,251.17,220Z" style="fill: rgb(106, 136, 122); transform-origin: 240.411px 249.921px;" id="ell4bd4725ufl" class="animable"></path><path d="M131.87,362a.5.5,0,0,1-.35-.85l86.38-88.45a.5.5,0,0,1,.7,0,.5.5,0,0,1,0,.71l-86.38,88.45A.51.51,0,0,1,131.87,362Z" style="fill: rgb(106, 136, 122); transform-origin: 175.062px 317.279px;" id="el3or3x5cp0wi" class="animable"></path><path d="M247.07,218.83H247a.5.5,0,0,1-.39-.59l23.3-108.11a.5.5,0,1,1,1,.21l-23.3,108.11A.5.5,0,0,1,247.07,218.83Z" style="fill: rgb(106, 136, 122); transform-origin: 258.76px 164.279px;" id="elh8u1hffb68k" class="animable"></path><path d="M211.64,236a.53.53,0,0,1-.24-.06L108.85,180.62a.5.5,0,0,1,.47-.88l102.56,55.33a.5.5,0,0,1,.2.68A.51.51,0,0,1,211.64,236Z" style="fill: rgb(106, 136, 122); transform-origin: 160.378px 207.848px;" id="ellp8v5yuy98d" class="animable"></path></g><g id="freepik--Device--inject-9" class="animable" style="transform-origin: 239.8px 271.86px;"><rect x="162.42" y="132.68" width="154.76" height="278.36" rx="10.4" style="fill: rgb(38, 50, 56); transform-origin: 239.8px 271.86px;" id="elxgtojb4p82o" class="animable"></rect><path d="M312,142V401.21a3.79,3.79,0,0,1-3.85,3.79h-137a3.4,3.4,0,0,1-3.44-3.48V141.69a3.06,3.06,0,0,1,2.95-3.18H204.9a2.41,2.41,0,0,1,2.2,1.54l1.42,3.5a2.41,2.41,0,0,0,2.21,1.52h58.32a2.4,2.4,0,0,0,2.21-1.5l1.41-3.51a2.42,2.42,0,0,1,2.21-1.55h33.77A3.45,3.45,0,0,1,312,142Z" style="fill: rgb(106, 136, 122); transform-origin: 239.854px 271.755px;" id="elc1tjcra0oek" class="animable"></path><g id="elf0o5ofkgtwj"><rect x="167.69" y="154.71" width="144.31" height="233.07" style="fill: rgb(255, 255, 255); opacity: 0.5; isolation: isolate; transform-origin: 239.845px 271.245px;" class="animable"></rect></g><g id="elxqn41fdvs6"><path d="M238.56,138.85a2,2,0,1,1-2-2A2,2,0,0,1,238.56,138.85Z" style="fill: rgb(255, 255, 255); opacity: 0.6; isolation: isolate; transform-origin: 236.56px 138.85px;" class="animable"></path></g><g id="elgmiyo8tshy"><path d="M242.57,138.85a1.27,1.27,0,1,1-1.27-1.27A1.27,1.27,0,0,1,242.57,138.85Z" style="fill: rgb(255, 255, 255); opacity: 0.6; isolation: isolate; transform-origin: 241.3px 138.85px;" class="animable"></path></g><g id="ele1dhikfm49"><rect x="183.97" y="146.58" width="1.78" height="2.38" style="fill: rgb(255, 255, 255); opacity: 0.6; isolation: isolate; transform-origin: 184.86px 147.77px; transform: rotate(180deg);" class="animable"></rect></g><g id="el2jtcm56cer2"><rect x="181.07" y="145.79" width="1.78" height="3.17" style="fill: rgb(255, 255, 255); opacity: 0.6; isolation: isolate; transform-origin: 181.96px 147.375px; transform: rotate(180deg);" class="animable"></rect></g><g id="eld1skqv5gnj"><rect x="178.16" y="144.99" width="1.78" height="3.96" style="fill: rgb(255, 255, 255); opacity: 0.6; isolation: isolate; transform-origin: 179.05px 146.97px; transform: rotate(180deg);" class="animable"></rect></g><g id="elgshfu4s5vip"><rect x="175.25" y="144.2" width="1.78" height="4.75" style="fill: rgb(255, 255, 255); opacity: 0.6; isolation: isolate; transform-origin: 176.14px 146.575px; transform: rotate(180deg);" class="animable"></rect></g><g id="eluizkm0vuolp"><rect x="294.99" y="145.71" width="1.06" height="2.38" style="fill: rgb(255, 255, 255); opacity: 0.6; isolation: isolate; transform-origin: 295.52px 146.9px;" class="animable"></rect></g><g id="el8ncmfbn3l18"><rect x="296.77" y="144.85" width="8.42" height="4.11" style="fill: rgb(255, 255, 255); opacity: 0.6; isolation: isolate; transform-origin: 300.98px 146.905px; transform: rotate(180deg);" class="animable"></rect></g><g id="el1y9colbd5ly"><rect x="172.94" y="282.15" width="132.25" height="49.11" style="fill: rgb(255, 255, 255); opacity: 0.5; isolation: isolate; transform-origin: 239.065px 306.705px;" class="animable"></rect></g><g id="elve0rdcqkmom"><path d="M271,290H246.43a1.81,1.81,0,0,1-1.8-1.8h0a1.81,1.81,0,0,1,1.8-1.8H271a1.81,1.81,0,0,1,1.8,1.8h0A1.81,1.81,0,0,1,271,290Z" style="opacity: 0.2; isolation: isolate; transform-origin: 258.715px 288.2px;" class="animable"></path></g><g id="elyei1kyu84s"><path d="M293.91,297.36H246.43a1.8,1.8,0,0,1-1.8-1.79h0a1.8,1.8,0,0,1,1.8-1.8h47.48a1.8,1.8,0,0,1,1.8,1.8h0A1.8,1.8,0,0,1,293.91,297.36Z" style="opacity: 0.2; isolation: isolate; transform-origin: 270.17px 295.565px;" class="animable"></path></g><g id="elckwpioqn92l"><rect x="177.83" y="286.39" width="59.36" height="40.63" style="opacity: 0.3; isolation: isolate; transform-origin: 207.51px 306.705px;" class="animable"></rect></g><g id="elmlhdwgg8nko"><path d="M196.94,299.68v14.05a1.61,1.61,0,0,0,2.26,1.47l16-7a1.61,1.61,0,0,0,0-2.95l-16-7A1.61,1.61,0,0,0,196.94,299.68Z" style="fill: rgb(255, 255, 255); opacity: 0.5; transform-origin: 206.552px 306.725px;" class="animable"></path></g><g id="el1z2j2uftnii"><rect x="172.94" y="334.65" width="132.25" height="49.11" style="fill: rgb(255, 255, 255); opacity: 0.5; isolation: isolate; transform-origin: 239.065px 359.205px;" class="animable"></rect></g><g id="elk6bmww43sc9"><path d="M271,342.49H246.43a1.81,1.81,0,0,1-1.8-1.8h0a1.81,1.81,0,0,1,1.8-1.8H271a1.81,1.81,0,0,1,1.8,1.8h0A1.81,1.81,0,0,1,271,342.49Z" style="opacity: 0.2; isolation: isolate; transform-origin: 258.715px 340.69px;" class="animable"></path></g><g id="el67xxofmq752"><path d="M293.91,349.86H246.43a1.8,1.8,0,0,1-1.8-1.79h0a1.8,1.8,0,0,1,1.8-1.8h47.48a1.8,1.8,0,0,1,1.8,1.8h0A1.8,1.8,0,0,1,293.91,349.86Z" style="opacity: 0.2; isolation: isolate; transform-origin: 270.17px 348.065px;" class="animable"></path></g><g id="el9szrym4r0al"><rect x="177.83" y="338.89" width="59.36" height="40.63" style="opacity: 0.3; isolation: isolate; transform-origin: 207.51px 359.205px;" class="animable"></rect></g><g id="el3t8yb5kbk8u"><path d="M196.94,353v14.05a1.61,1.61,0,0,0,2.26,1.47l16-7a1.61,1.61,0,0,0,0-2.95l-16-7A1.61,1.61,0,0,0,196.94,353Z" style="fill: rgb(255, 255, 255); opacity: 0.5; transform-origin: 206.552px 360.045px;" class="animable"></path></g><g id="el5mbhmp1oxs3"><rect x="172.94" y="229.66" width="132.25" height="49.11" style="fill: rgb(255, 255, 255); opacity: 0.5; isolation: isolate; transform-origin: 239.065px 254.215px;" class="animable"></rect></g><g id="elu7dffdaj9lg"><path d="M271,237.49H246.43a1.8,1.8,0,0,1-1.8-1.8h0a1.81,1.81,0,0,1,1.8-1.8H271a1.81,1.81,0,0,1,1.8,1.8h0A1.8,1.8,0,0,1,271,237.49Z" style="opacity: 0.2; isolation: isolate; transform-origin: 258.715px 235.69px;" class="animable"></path></g><g id="elosd68x44wn"><path d="M293.91,244.87H246.43a1.81,1.81,0,0,1-1.8-1.8h0a1.81,1.81,0,0,1,1.8-1.8h47.48a1.81,1.81,0,0,1,1.8,1.8h0A1.81,1.81,0,0,1,293.91,244.87Z" style="opacity: 0.2; isolation: isolate; transform-origin: 270.17px 243.07px;" class="animable"></path></g><g id="eloa9v3xfuko8"><rect x="177.83" y="233.89" width="59.36" height="40.63" style="opacity: 0.3; isolation: isolate; transform-origin: 207.51px 254.205px;" class="animable"></rect></g><g id="el2rtzqo6ttmb"><path d="M196.94,247.18v14.05a1.62,1.62,0,0,0,2.26,1.48l16-7a1.6,1.6,0,0,0,0-2.94l-16-7A1.61,1.61,0,0,0,196.94,247.18Z" style="fill: rgb(255, 255, 255); opacity: 0.5; transform-origin: 206.554px 254.237px;" class="animable"></path></g><g id="el089q1cp6fbr4"><path d="M219.7,184a17.22,17.22,0,0,1-5.09,12.25,15.17,15.17,0,0,1-1.47,1.3l-.28.22a16.54,16.54,0,0,1-3.57,2.09,17.23,17.23,0,0,1-14.42-.29c-.37-.18-.74-.38-1.1-.58a17.16,17.16,0,0,1-4.9-4.23c-.25-.31-.48-.63-.7-.95A17.29,17.29,0,1,1,219.7,184Z" style="opacity: 0.3; isolation: isolate; transform-origin: 202.41px 184.007px;" class="animable"></path></g><g id="freepik--group--inject-9" class="animable" style="transform-origin: 201.39px 186.481px;"><path d="M213.71,195.18l0,0,0,.09c-.09.3-.29,1-.53,2.19l-.28.22a16.54,16.54,0,0,1-3.57,2.09,17.23,17.23,0,0,1-14.42-.29c-.37-.18-.74-.38-1.1-.58a17.16,17.16,0,0,1-4.9-4.23c.07-.43.14-.85.22-1.27h.37c1,0,3.82,0,7.53.07,2.31.08,5,.22,7.73.47h0C207.68,194.25,210.78,194.63,213.71,195.18Z" style="fill: rgb(38, 50, 56); transform-origin: 201.31px 197.305px;" id="elu9kq0mvo7jk" class="animable"></path><g id="eleex422df64l"><path d="M209.29,199.82a17.23,17.23,0,0,1-14.42-.29,29.67,29.67,0,0,1,3.34-4.3s5.27,4.21,8.71.06C206.92,195.29,208.07,197.24,209.29,199.82Z" style="fill: rgb(255, 255, 255); opacity: 0.7; transform-origin: 202.08px 198.245px;" class="animable"></path></g><path d="M193.77,199a17.16,17.16,0,0,1-4.9-4.23c-.25-.31-.48-.63-.7-.95a2.12,2.12,0,0,1,.92-.32h.37C191.46,193.58,192.85,196.18,193.77,199Z" style="fill: rgb(38, 50, 56); transform-origin: 190.97px 196.25px;" id="el7xhiet2rlgm" class="animable"></path><path d="M203.34,195.9s-4.78-.27-6.35-2.37a3.79,3.79,0,0,0,1.08-1.36,9.18,9.18,0,0,0,.86-2.81v0a8.48,8.48,0,0,0,.13-.88c.08-.71.13-1.43.14-2.13,0-1,0-2-.06-2.79l1.75,1.91.51.55,2.38,2.62.28.31-.18.5c-.06.19-.12.38-.17.56a.24.24,0,0,0,0,.08,5.32,5.32,0,0,0-.19,1.92,2.13,2.13,0,0,0,.11.5,2.69,2.69,0,0,0,.53,1,4.34,4.34,0,0,0,1.84,1.18C206.41,195.68,203.34,195.9,203.34,195.9Z" style="fill: rgb(228, 137, 123); transform-origin: 201.514px 189.73px;" id="elzhba0fs92mk" class="animable"></path><g id="el3uyi3dqvlej"><path d="M204.06,188.92l-.18.5c-.06.19-.12.38-.17.56a.24.24,0,0,0,0,.08,5.32,5.32,0,0,0-.19,1.92,2.13,2.13,0,0,0,.11.5,2.69,2.69,0,0,0,.53,1,7.08,7.08,0,0,1-5.21-4.1v0a8.48,8.48,0,0,0,.13-.88c.08-.71.13-1.43.14-2.13l1.69-.88.51.55,2.38,2.62Z" style="opacity: 0.2; isolation: isolate; transform-origin: 201.555px 189.485px;" class="animable"></path></g><path d="M209.42,176s1.92,5.62-.75,8.39-4.6-8-4.6-8Z" style="fill: rgb(38, 50, 56); transform-origin: 207.079px 180.423px;" id="elper9siwpsid" class="animable"></path><path d="M200.6,190.59a5.34,5.34,0,0,0,6.39.95,6,6,0,0,0,2.84-3.32,5.25,5.25,0,0,0,.17-.6c.88-3.8.25-10.05-3.9-11.7a5.77,5.77,0,0,0-7.5,3.19,5.6,5.6,0,0,0-.4,2.65C198.48,186,198.45,188.46,200.6,190.59Z" style="fill: rgb(228, 137, 123); transform-origin: 204.261px 183.851px;" id="eli5hjuvttrgi" class="animable"></path><path d="M204.6,182.89c0,.34.19.61.42.61s.4-.28.4-.62-.19-.62-.41-.62S204.6,182.54,204.6,182.89Z" style="fill: rgb(38, 50, 56); transform-origin: 205.01px 182.88px;" id="elfordlhkinhg" class="animable"></path><path d="M208.49,182.85c0,.34.19.62.41.62s.4-.29.4-.63-.19-.62-.41-.62S208.48,182.53,208.49,182.85Z" style="fill: rgb(38, 50, 56); transform-origin: 208.895px 182.845px;" id="elvhgj1qbci2f" class="animable"></path><path d="M207.25,183a12.08,12.08,0,0,0,1.67,2.92,2,2,0,0,1-1.65.33Z" style="fill: rgb(222, 87, 83); transform-origin: 208.085px 184.653px;" id="elipo9rqjy1ni" class="animable"></path><path d="M209.91,181.18a.2.2,0,0,1-.21,0,1.62,1.62,0,0,0-1.45-.16.2.2,0,0,1-.27-.09.21.21,0,0,1,.1-.27h0a2,2,0,0,1,1.83.17.21.21,0,0,1,.07.28h0Z" style="fill: rgb(38, 50, 56); transform-origin: 208.985px 180.862px;" id="elmr8hhv8mh0m" class="animable"></path><path d="M203.82,181.34a.15.15,0,0,1-.11,0,.19.19,0,0,1,0-.28h0a2,2,0,0,1,1.78-.48.2.2,0,0,1,.14.25h0a.21.21,0,0,1-.25.14h0a1.62,1.62,0,0,0-1.41.4A.2.2,0,0,1,203.82,181.34Z" style="fill: rgb(38, 50, 56); transform-origin: 204.643px 180.954px;" id="el6vsftfe9na" class="animable"></path><path d="M201.24,176.48l.33,1.84a1.39,1.39,0,0,0-.59,1.78,5.06,5.06,0,0,1-1.21,5s-.07-.67-.63-.48.31,1.24-.08,3.56a5.73,5.73,0,0,1-1.85-3.31c-.8-3.44-1.34-6.21-.71-7.57Z" style="fill: rgb(38, 50, 56); transform-origin: 198.897px 182.33px;" id="elamgf7uesr07" class="animable"></path><path d="M207.05,187.88a11.69,11.69,0,0,0-1,1.27l-.25-.12c-1.16-.54-1.52-1.17-1.57-1.71a1.66,1.66,0,0,1,.13-.77,1.77,1.77,0,0,1,.22-.39,6,6,0,0,0,2.06,1.53Z" style="fill: rgb(38, 50, 56); transform-origin: 205.638px 187.655px;" id="elwcvjnlshs6" class="animable"></path><path d="M206.66,187.69l-.3.37c-1.09-.51-1.79-1-2-1.51a1.77,1.77,0,0,1,.22-.39A6,6,0,0,0,206.66,187.69Z" style="fill: rgb(255, 255, 255); transform-origin: 205.51px 187.11px;" id="elf7he0tl1f7d" class="animable"></path><path d="M205.82,189c-1.16-.54-1.52-1.17-1.57-1.71a4.2,4.2,0,0,1,1.17.85A1.67,1.67,0,0,1,205.82,189Z" style="fill: rgb(222, 87, 83); transform-origin: 205.035px 188.145px;" id="elmuur0rdu1f" class="animable"></path><path d="M209.42,176c.23.45-.53,2.05-2.24,2.81s.12-.94.12-.94-3.42,1.13-3.51.69,1-1.06,1-1.06-2.85,1.3-5.14.71,1.94-4.36,4.61-4.25S208.73,174.68,209.42,176Z" style="fill: rgb(38, 50, 56); transform-origin: 204.227px 176.482px;" id="el36vjvxku7ks" class="animable"></path><path d="M209.42,176s-8.23-1.59-12.91,5.58c0,0-1-3.68-.56-5.27s4-4.31,6.88-4.56S208.33,172.14,209.42,176Z" style="fill: rgb(106, 136, 122); transform-origin: 202.629px 176.641px;" id="elvnafecl0lyb" class="animable"></path><path d="M208,175.38s-.47-1.9-1.37-2a3.28,3.28,0,0,0-2.21.34,5.37,5.37,0,0,0-.05,1.81S206.62,174.74,208,175.38Z" style="fill: rgb(38, 50, 56); transform-origin: 206.158px 174.424px;" id="eliyrxbkbea9d" class="animable"></path><path d="M198.91,178.84l-2.57,1.7s-5.08,3.87-4.67,5.09,5.78.1,5.78.1c-.5-1.74-.94-4.14-.94-4.14A13.19,13.19,0,0,1,198.91,178.84Z" style="fill: rgb(106, 136, 122); transform-origin: 195.278px 182.52px;" id="elxv6h0zxq6j" class="animable"></path><g id="el9zoke9kd8fg"><path d="M198.91,178.84l-2.57,1.7s-5.08,3.87-4.67,5.09,5.78.1,5.78.1c-.5-1.74-.94-4.14-.94-4.14A13.19,13.19,0,0,1,198.91,178.84Z" style="opacity: 0.2; isolation: isolate; transform-origin: 195.278px 182.52px;" class="animable"></path></g><path d="M196.39,185.24a4,4,0,0,0,2.31,2c1.34.44,2.07-.74,1.75-2-.29-1.15-1.34-2.8-2.71-2.65A1.78,1.78,0,0,0,196.39,185.24Z" style="fill: rgb(228, 137, 123); transform-origin: 198.341px 184.957px;" id="ellwxv1ui6zzs" class="animable"></path><path d="M214.61,196.21a15.17,15.17,0,0,1-1.47,1.3l-.28.22.83-2.5,0,0A3.85,3.85,0,0,1,214.61,196.21Z" style="fill: rgb(38, 50, 56); transform-origin: 213.735px 196.48px;" id="eltt4suad599" class="animable"></path></g><g id="el492elxqr85e"><path d="M215.64,205.34H180.83a2.43,2.43,0,1,0,0,4.85h34.81a2.43,2.43,0,1,0,0-4.85Z" style="fill: rgb(255, 255, 255); opacity: 0.5; isolation: isolate; transform-origin: 198.235px 207.765px;" class="animable"></path></g><path d="M226.41,207.77a3,3,0,1,1-3-3A3,3,0,0,1,226.41,207.77Z" style="fill: rgb(106, 136, 122); transform-origin: 223.41px 207.77px;" id="el4q2nzitvsrt" class="animable"></path><path d="M223.1,209.17h0a.25.25,0,0,1-.19-.09l-1-1.15a.25.25,0,0,1,.38-.33l.79.93,1.58-1.85a.25.25,0,1,1,.38.33l-1.77,2.07A.22.22,0,0,1,223.1,209.17Z" style="fill: rgb(255, 255, 255); transform-origin: 223.475px 207.881px;" id="elj64o4j7szy9" class="animable"></path><g id="el6o8n2jxetm8"><g style="opacity: 0.7; isolation: isolate; transform-origin: 267.685px 195.34px;" class="animable"><path d="M236.06,197.19h-1.24v1.6h-.9v-1.6h-3.6v-.65l3.32-4.24h1l-3.18,4.09H234V195h.87v1.41h1.24Z" id="elpwbdtfae9wc" class="animable" style="transform-origin: 233.215px 195.545px;"></path><path d="M241.83,197c0,1.18-1,1.91-2.59,1.91s-2.57-.73-2.57-1.91a1.62,1.62,0,0,1,1.14-1.57,1.47,1.47,0,0,1-.91-1.4c0-1.08.94-1.76,2.34-1.76s2.36.68,2.36,1.76a1.47,1.47,0,0,1-.92,1.4A1.62,1.62,0,0,1,241.83,197Zm-.93,0c0-.71-.63-1.16-1.66-1.16s-1.64.45-1.64,1.16.61,1.19,1.64,1.19S240.9,197.65,240.9,196.92Zm-3.08-2.9c0,.64.53,1,1.42,1s1.45-.4,1.45-1-.58-1.05-1.45-1.05S237.82,193.37,237.82,194Z" id="eljiptekhect" class="animable" style="transform-origin: 239.25px 195.59px;"></path><path d="M245.33,195.9l-1.19,1.21v1.68h-.93V192.3h.93v3.62l3.52-3.62h1.06L246,195.22l3,3.57h-1.09Z" id="elcav2faim4ke" class="animable" style="transform-origin: 246.105px 195.545px;"></path><path d="M251.63,198.27l.37-.71a3.16,3.16,0,0,0,1.73.51c.82,0,1.16-.25,1.16-.67,0-1.1-3.1-.14-3.1-2.1,0-.88.79-1.47,2.05-1.47a3.57,3.57,0,0,1,1.79.44l-.38.71a2.57,2.57,0,0,0-1.42-.39c-.78,0-1.16.28-1.16.67,0,1.16,3.11.22,3.11,2.13,0,.89-.81,1.45-2.12,1.45A3.58,3.58,0,0,1,251.63,198.27Z" id="elvdzeqbg0gen" class="animable" style="transform-origin: 253.705px 196.335px;"></path><path d="M261.48,193.87v4.92h-.84V198a2,2,0,0,1-1.67.8,1.93,1.93,0,0,1-2.12-2.14v-2.83h.89v2.73c0,1,.49,1.44,1.33,1.44a1.44,1.44,0,0,0,1.52-1.63v-2.54Z" id="el4f89whwueay" class="animable" style="transform-origin: 259.159px 196.32px;"></path><path d="M268.27,196.33a2.39,2.39,0,0,1-2.48,2.51A2.1,2.1,0,0,1,264,198v.78h-.85v-6.88h.89v2.7a2.11,2.11,0,0,1,1.72-.78A2.38,2.38,0,0,1,268.27,196.33Zm-.9,0a1.66,1.66,0,1,0-1.66,1.73A1.62,1.62,0,0,0,267.37,196.33Z" id="elvoywr5mmnn9" class="animable" style="transform-origin: 265.712px 195.371px;"></path><path d="M268.89,198.27l.37-.71a3.12,3.12,0,0,0,1.72.51c.83,0,1.17-.25,1.17-.67,0-1.1-3.1-.14-3.1-2.1,0-.88.78-1.47,2-1.47a3.54,3.54,0,0,1,1.79.44l-.38.71a2.51,2.51,0,0,0-1.41-.39c-.78,0-1.16.28-1.16.67,0,1.16,3.11.22,3.11,2.13,0,.89-.81,1.45-2.12,1.45A3.58,3.58,0,0,1,268.89,198.27Z" id="elv5rtjz64fnp" class="animable" style="transform-origin: 270.945px 196.335px;"></path><path d="M282.35,193.83v.86h-.21a1.46,1.46,0,0,0-1.54,1.66v2.45h-.89v-4.92h.85v.83A1.86,1.86,0,0,1,282.35,193.83Z" id="ellm1lf2gvq2" class="animable" style="transform-origin: 281.03px 196.309px;"></path><path d="M274.16,196.33a2.45,2.45,0,0,1,2.59-2.5,2.21,2.21,0,0,1,2,1l-.68.44a1.55,1.55,0,0,0-1.34-.71,1.73,1.73,0,0,0,0,3.46,1.54,1.54,0,0,0,1.34-.7l.68.42a2.21,2.21,0,0,1-2,1.06A2.46,2.46,0,0,1,274.16,196.33Z" id="el6soxkcafdf8" class="animable" style="transform-origin: 276.455px 196.314px;"></path><path d="M283,192.35a.59.59,0,0,1,.6-.58.58.58,0,0,1,.61.56.59.59,0,0,1-.61.6A.58.58,0,0,1,283,192.35Zm.16,1.52H284v4.92h-.89Z" id="elecneyqowt5b" class="animable" style="transform-origin: 283.605px 195.28px;"></path><path d="M290.83,196.33a2.39,2.39,0,0,1-2.49,2.51,2.09,2.09,0,0,1-1.75-.83v.78h-.85v-6.88h.89v2.7a2.11,2.11,0,0,1,1.71-.78A2.39,2.39,0,0,1,290.83,196.33Zm-.9,0a1.66,1.66,0,1,0-1.66,1.73A1.63,1.63,0,0,0,289.93,196.33Z" id="elgfcs0zgkju" class="animable" style="transform-origin: 288.287px 195.376px;"></path><path d="M296.49,196.63h-4a1.66,1.66,0,0,0,1.78,1.43,1.82,1.82,0,0,0,1.42-.59l.49.57a2.68,2.68,0,0,1-4.58-1.71,2.4,2.4,0,0,1,2.47-2.5,2.37,2.37,0,0,1,2.43,2.53C296.51,196.43,296.5,196.54,296.49,196.63Zm-4-.64h3.15a1.58,1.58,0,0,0-3.15,0Z" id="elq13ipstm54" class="animable" style="transform-origin: 294.052px 196.332px;"></path><path d="M300.39,193.83v.86h-.21a1.47,1.47,0,0,0-1.55,1.66v2.45h-.89v-4.92h.86v.83A1.85,1.85,0,0,1,300.39,193.83Z" id="el46wucslb89i" class="animable" style="transform-origin: 299.065px 196.309px;"></path><path d="M300.9,198.27l.37-.71a3.15,3.15,0,0,0,1.72.51c.83,0,1.17-.25,1.17-.67,0-1.1-3.1-.14-3.1-2.1,0-.88.78-1.47,2.05-1.47a3.53,3.53,0,0,1,1.78.44l-.38.71a2.51,2.51,0,0,0-1.41-.39c-.78,0-1.16.28-1.16.67,0,1.16,3.11.22,3.11,2.13,0,.89-.81,1.45-2.12,1.45A3.58,3.58,0,0,1,300.9,198.27Z" id="elfp5ngqm967b" class="animable" style="transform-origin: 302.975px 196.335px;"></path></g></g><rect x="235.84" y="174.37" width="63.69" height="15.84" rx="1.43" style="fill: rgb(106, 136, 122); transform-origin: 267.685px 182.29px;" id="elwkrldsi26g" class="animable"></rect><path d="M240.68,184.76l.34-.71a3.28,3.28,0,0,0,2.11.74c1.11,0,1.59-.43,1.59-1,0-1.56-3.88-.57-3.88-3,0-1,.77-1.84,2.45-1.84a3.82,3.82,0,0,1,2.06.57l-.3.73a3.38,3.38,0,0,0-1.76-.52c-1.09,0-1.56.46-1.56,1,0,1.56,3.89.58,3.89,2.94,0,1-.79,1.82-2.49,1.82A3.77,3.77,0,0,1,240.68,184.76Z" style="fill: rgb(255, 255, 255); transform-origin: 243.15px 182.223px;" id="el3e3ylr4lse2" class="animable"></path><path d="M246.9,182.73v-3.64h.92v3.61c0,1.41.65,2.06,1.8,2.06s1.81-.65,1.81-2.06v-3.61h.89v3.64a2.71,2.71,0,1,1-5.42,0Z" style="fill: rgb(255, 255, 255); transform-origin: 249.61px 182.265px;" id="ell1eyma07ql" class="animable"></path><path d="M259.71,183.77c0,1.09-.83,1.73-2.45,1.73H254.2v-6.41h2.88c1.47,0,2.3.62,2.3,1.65a1.51,1.51,0,0,1-.87,1.43A1.54,1.54,0,0,1,259.71,183.77Zm-4.59-3.94v2H257c.93,0,1.46-.35,1.46-1s-.53-1-1.46-1Zm3.67,3.86c0-.74-.55-1.07-1.57-1.07h-2.1v2.14h2.1C258.24,184.76,258.79,184.43,258.79,183.69Z" style="fill: rgb(255, 255, 255); transform-origin: 256.957px 182.295px;" id="elzm83ybc2tmi" class="animable"></path><path d="M260.55,184.76l.34-.71a3.31,3.31,0,0,0,2.12.74c1.1,0,1.58-.43,1.58-1,0-1.56-3.88-.57-3.88-3,0-1,.77-1.84,2.45-1.84a3.82,3.82,0,0,1,2.06.57l-.3.73a3.38,3.38,0,0,0-1.76-.52c-1.09,0-1.56.46-1.56,1,0,1.56,3.89.58,3.89,2.94,0,1-.79,1.82-2.48,1.82A3.8,3.8,0,0,1,260.55,184.76Z" style="fill: rgb(255, 255, 255); transform-origin: 263.02px 182.223px;" id="els3yfxxwafin" class="animable"></path><path d="M266.31,182.29A3.24,3.24,0,0,1,269.7,179a3.18,3.18,0,0,1,2.44,1l-.6.58a2.37,2.37,0,0,0-1.8-.76,2.47,2.47,0,1,0,0,4.93,2.38,2.38,0,0,0,1.8-.77l.6.57a3.19,3.19,0,0,1-2.45,1A3.23,3.23,0,0,1,266.31,182.29Z" style="fill: rgb(255, 255, 255); transform-origin: 269.225px 182.275px;" id="elqfof72jbm2o" class="animable"></path><path d="M277.74,185.5l-1.39-2-.4,0h-1.58v1.95h-.92v-6.41H276c1.67,0,2.67.84,2.67,2.23a2,2,0,0,1-1.41,2l1.52,2.15Zm0-4.18c0-.91-.62-1.44-1.79-1.44h-1.55v2.89h1.55C277.09,182.77,277.71,182.24,277.71,181.32Z" style="fill: rgb(255, 255, 255); transform-origin: 276.115px 182.27px;" id="elx3pu33bjfr" class="animable"></path><path d="M280.11,179.09H281v6.41h-.92Z" style="fill: rgb(255, 255, 255); transform-origin: 280.54px 182.295px;" id="eltuepspi622" class="animable"></path><path d="M288.46,183.77c0,1.09-.83,1.73-2.45,1.73H283v-6.41h2.88c1.47,0,2.29.62,2.29,1.65a1.5,1.5,0,0,1-.86,1.43A1.54,1.54,0,0,1,288.46,183.77Zm-4.59-3.94v2h1.87c.94,0,1.47-.35,1.47-1s-.53-1-1.47-1Zm3.67,3.86c0-.74-.55-1.07-1.57-1.07h-2.1v2.14H286C287,184.76,287.54,184.43,287.54,183.69Z" style="fill: rgb(255, 255, 255); transform-origin: 285.732px 182.295px;" id="elw3b5x5nkt7" class="animable"></path><path d="M294.54,184.7v.8h-4.65v-6.41h4.52v.79H290.8v2H294v.78H290.8v2.07Z" style="fill: rgb(255, 255, 255); transform-origin: 292.215px 182.295px;" id="el9u3jorpio15" class="animable"></path></g><g id="freepik--speech-bubble--inject-9" class="animable" style="transform-origin: 413.825px 178.473px;"><g id="elztby4lbywdk"><rect x="401.19" y="164.46" width="25.27" height="25.27" rx="4.27" style="fill: rgb(106, 136, 122); transform-origin: 413.825px 177.095px; transform: rotate(7.67deg);" class="animable"></rect></g><g id="ell3xvnv15u2m"><g style="opacity: 0.5; transform-origin: 413.239px 177.103px;" class="animable"><path d="M420,180.86a1.12,1.12,0,0,1-1-1.26l.61-4.47a5.59,5.59,0,0,0-4.3-6.27,5.47,5.47,0,0,0-6.51,4.63l-.62,4.65a1.12,1.12,0,0,1-1.26,1,1.57,1.57,0,0,0-1.75,1.13,1.5,1.5,0,0,0,1.26,1.84l13.22,1.78a1.5,1.5,0,0,0,1.7-1.44A1.56,1.56,0,0,0,420,180.86Z" style="fill: rgb(255, 255, 255); transform-origin: 413.239px 176.327px;" id="elh5di8xtz3oi" class="animable"></path><path d="M414,185.57a1.34,1.34,0,1,1-1.15-1.51A1.34,1.34,0,0,1,414,185.57Z" style="fill: rgb(255, 255, 255); transform-origin: 412.672px 185.388px;" id="eldjilxgoruao" class="animable"></path><path d="M416.28,169a1.34,1.34,0,1,1-1.15-1.51A1.36,1.36,0,0,1,416.28,169Z" style="fill: rgb(255, 255, 255); transform-origin: 414.951px 168.818px;" id="elx4ij4dyx71" class="animable"></path></g></g><path d="M407.13,187s-.2,4.58-5.49,7.06a12.89,12.89,0,0,0,10.71-5.95Z" style="fill: rgb(106, 136, 122); transform-origin: 406.995px 190.53px;" id="el7hdopjyp0nb" class="animable"></path></g><g id="freepik--Character--inject-9" class="animable" style="transform-origin: 350.597px 299.121px;"><g id="freepik--group--inject-9" class="animable" style="transform-origin: 350.597px 299.121px;"><polygon points="423.62 404.62 433.05 413.12 441.14 412.15 430.25 400.19 423.62 404.62" style="fill: rgb(228, 137, 123); transform-origin: 432.38px 406.655px;" id="elvstyhbeeine" class="animable"></polygon><polygon points="289.54 404.78 279.11 412.03 271.2 410.04 283.52 399.56 289.54 404.78" style="fill: rgb(228, 137, 123); transform-origin: 280.37px 405.795px;" id="elp1du2371yoq" class="animable"></polygon><path d="M436.43,403.45,429,410.68s-54-43.11-54.92-50.32,0-45.66,0-45.66-7.22,8.45-18.38,21c-17.93,20.16-46,50.87-70.62,74.06l-8.67-6c62.4-77.88,82.25-119.55,82.25-119.55l2.56-19.58,35.87-3.25s8.62,22.59,6.29,39.37-11.19,48-10.24,54.28S436.43,403.45,436.43,403.45Z" style="fill: rgb(38, 50, 56); transform-origin: 356.42px 336.03px;" id="el4pup60wyci" class="animable"></path><path d="M432.44,411.64h9a.65.65,0,0,1,.62.51l1.46,6.56a1.09,1.09,0,0,1-.84,1.29.65.65,0,0,1-.24,0c-2.9,0-5-.22-8.64-.22-2.24,0-9,.23-12.1.23s-3.49-3-2.23-3.33c5.68-1.24,10-3,11.78-4.59A1.8,1.8,0,0,1,432.44,411.64Z" style="fill: rgb(38, 50, 56); transform-origin: 431.171px 415.826px;" id="elr3yp24iaptj" class="animable"></path><path d="M272.75,408.1l8.1,3.81a.65.65,0,0,1,.35.73l-1.48,6.56a1.09,1.09,0,0,1-1.3.81.92.92,0,0,1-.23-.09c-2.6-1.27-4.44-2.33-7.73-3.88-2-1-8.24-3.62-11-4.93s-1.86-4.26-.6-4c5.67,1.3,10.27,1.56,12.61.86A1.78,1.78,0,0,1,272.75,408.1Z" style="fill: rgb(38, 50, 56); transform-origin: 269.433px 413.565px;" id="elze3ot9dvg9q" class="animable"></path><g id="elm5fnd2uglb"><path d="M375.51,297.68l-1.46,17s-7.22,8.45-18.38,21c11.84-19.12,15-32.29,15-32.29-3.86-5.17-4.26-13.42-4.26-13.42Z" style="opacity: 0.3; isolation: isolate; transform-origin: 365.59px 312.825px;" class="animable"></path></g><g id="elvmq4ev38m0k"><path d="M436.43,403.45,429,410.68s-54-43.11-54.92-50.32,0-45.66,0-45.66-7.22,8.45-18.38,21c-17.93,20.16-46,50.87-70.62,74.06l-8.67-6c62.4-77.88,82.25-119.55,82.25-119.55l2.56-19.58,35.87-3.25s8.62,22.59,6.29,39.37-11.19,48-10.24,54.28S436.43,403.45,436.43,403.45Z" style="opacity: 0.3; isolation: isolate; transform-origin: 356.42px 336.03px;" class="animable"></path></g><path d="M313.44,208.45s13.05,9.65,18.09,11.87,25,1.8,25,1.8l3.17,10s-22.43-2.41-28.15-3.45S309.5,211.3,309.5,211.3Z" style="fill: rgb(228, 137, 123); transform-origin: 334.6px 220.285px;" id="elai8nq87zx95" class="animable"></path><path d="M358.13,239.18l-11.7-2.27-5.39-1-4.47-15.53,19.17-.06c1.43,2.14,2.13,5.32,2.45,8.47A58.75,58.75,0,0,1,358.13,239.18Z" style="fill: rgb(106, 136, 122); transform-origin: 347.481px 229.75px;" id="eln5r24om0s1d" class="animable"></path><path d="M313.44,208.45l-4.31-3.38a6.3,6.3,0,0,0-1-1.83c-.6-.64-9.42-2.3-9.69-2.16s-.7,6.47-.28,6.82,7.41,1.3,8.11,1.37a2.53,2.53,0,0,0,1.36-.34l3.91,3.7Z" style="fill: rgb(228, 137, 123); transform-origin: 305.712px 206.851px;" id="el08ru7m3bpfak" class="animable"></path><g id="elt2izf80rrdp"><path d="M358.13,239.18l-11.7-2.27c2.8-5.67,9.94-7.72,11.76-8.16A58.75,58.75,0,0,1,358.13,239.18Z" style="opacity: 0.2; isolation: isolate; transform-origin: 352.411px 233.965px;" class="animable"></path></g><path d="M399.49,268.91,360,268a207.55,207.55,0,0,0-2.16-27.63c-1.92-12.82-4.4-19.57-4.4-19.57,19.21-4.82,42.69-5.6,42.69-5.6.69,2.71,1.26,5.59,1.73,8.54a171.21,171.21,0,0,1,1.89,21.63c0,.27,0,.53,0,.8v0C400.07,255,399.82,263.11,399.49,268.91Z" style="fill: rgb(106, 136, 122); transform-origin: 376.669px 242.055px;" id="elc18n77ewtih" class="animable"></path><g id="el8o14fnqq5wf"><path d="M399.49,268.91,360,268a207.55,207.55,0,0,0-2.16-27.63c.08-.44.16-.84.25-1.21,1.91-8.46,7.18-18.88,7.18-18.88,6.43,6.86,15.17-1,15.17-1,7.27,6.43,19,26.3,19.33,26.91v0C400.07,255,399.82,263.11,399.49,268.91Z" style="fill: rgb(255, 255, 255); opacity: 0.7; transform-origin: 378.872px 244.095px;" class="animable"></path></g><g id="elqyqrbxzpr2p"><path d="M399.79,245.39a16.25,16.25,0,0,1-7.45,2.05l5.56-23.68A171.21,171.21,0,0,1,399.79,245.39Z" style="opacity: 0.2; isolation: isolate; transform-origin: 396.065px 235.6px;" class="animable"></path></g><path d="M368.73,238.34,380,244.05a1.06,1.06,0,0,1-.08,1.92l-10.43,4.32a1.06,1.06,0,0,1-1.46-.9l-.79-10A1.06,1.06,0,0,1,368.73,238.34Z" style="fill: rgb(106, 136, 122); transform-origin: 373.905px 244.309px;" id="elqrie8kybyer" class="animable"></path><path d="M393.33,229.84s-2.72,14.95-5.9,16.31S366,241.82,366,241.82s-2.29-3.14-3.8-3.36-11.34,3.7-11.34,3.7l5.35,5.47,8-2.31s16.45,7.53,24,6.24,10.82-18.13,10.82-18.13l-5.36-4.68" style="fill: rgb(228, 137, 123); transform-origin: 374.945px 240.229px;" id="el75zijo4sa3t" class="animable"></path><path d="M396.17,215.22c4.8.12,8.94,9.9,1.64,28.62l-11.16-6.66S388.06,215,396.17,215.22Z" style="fill: rgb(106, 136, 122); transform-origin: 394.21px 229.529px;" id="elko8eoww8pcq" class="animable"></path><path d="M382.42,216.18C379.9,220,371.6,221,371.6,221s-5.36-.07-4.72-1.92c2.39-1,3.52-2.46,3.9-4a6.85,6.85,0,0,0,.14-.89,9.24,9.24,0,0,0-.53-3.31c0-.05,0-.1-.05-.14-.11-.31-.23-.64-.36-1s-.24-.57-.37-.85l.46-.58,3.88-4.8,3.67-4.54a48.47,48.47,0,0,0,.65,8.57c.09.52.19,1,.31,1.51a16.66,16.66,0,0,0,1.81,4.87A6.5,6.5,0,0,0,382.42,216.18Z" style="fill: rgb(228, 137, 123); transform-origin: 374.623px 209.985px;" id="elvjfojsl5ikc" class="animable"></path><g id="elhor669cygin"><path d="M378.85,208.11q-.15.48-.27,1c-.07.32-.14.63-.2.94,0,0,0,.08,0,.14-1.72,2.28-4.25,4.52-7.57,4.91a6.85,6.85,0,0,0,.14-.89,9.24,9.24,0,0,0-.53-3.31c0-.05,0-.1-.05-.14-.11-.31-.23-.64-.36-1,0-.47.07-.95.09-1.43l3.88-4.8,4.32,4Z" style="opacity: 0.2; isolation: isolate; transform-origin: 374.43px 209.315px;" class="animable"></path></g><path d="M366.36,183.46s-5.71,8.63-2.44,14.48,11.28-11.43,11.28-11.43Z" style="fill: rgb(38, 50, 56); transform-origin: 369.055px 191.305px;" id="elcm995j8otkf" class="animable"></path><path d="M374.82,212a9.3,9.3,0,0,1-11.19-1.21,10.37,10.37,0,0,1-3.34-6.85,10,10,0,0,1,0-1.1c.2-6.79,4-17.08,11.74-18a10.05,10.05,0,0,1,11.26,8.69,9.94,9.94,0,0,1-.49,4.65C380.44,205.09,379.39,209.3,374.82,212Z" style="fill: rgb(228, 137, 123); transform-origin: 371.826px 199.045px;" id="el069ekxfm0dec" class="animable"></path><path d="M371.46,197.18c-.12.59-.59,1-1,.86s-.55-.66-.4-1.23.59-1,1-.86S371.61,196.6,371.46,197.18Z" style="fill: rgb(38, 50, 56); transform-origin: 370.76px 196.995px;" id="elbo3kh8toh54" class="animable"></path><path d="M364.92,195.41c-.11.59-.59,1-1,.86s-.56-.66-.41-1.23.6-1,1-.86S365.07,194.86,364.92,195.41Z" style="fill: rgb(38, 50, 56); transform-origin: 364.214px 195.225px;" id="el3yise2dgglu" class="animable"></path><path d="M366.92,196.26a21.18,21.18,0,0,1-4.1,4.2,3.51,3.51,0,0,0,2.64,1.27Z" style="fill: rgb(222, 87, 83); transform-origin: 364.87px 198.995px;" id="el6613tsi9jdj" class="animable"></path><path d="M363.26,192a.33.33,0,0,0,.35.09,2.86,2.86,0,0,1,2.52.38.36.36,0,0,0,.49,0,.37.37,0,0,0,0-.5h0a3.52,3.52,0,0,0-3.17-.51.35.35,0,0,0-.24.43h0A.42.42,0,0,0,363.26,192Z" style="fill: rgb(38, 50, 56); transform-origin: 364.957px 191.927px;" id="els883uen3unr" class="animable"></path><path d="M373.46,194.92a.38.38,0,0,0,.21,0,.35.35,0,0,0,.1-.48h0a3.48,3.48,0,0,0-2.79-1.58.35.35,0,0,0-.35.36h0a.36.36,0,0,0,.36.34h0a2.85,2.85,0,0,1,2.2,1.29A.36.36,0,0,0,373.46,194.92Z" style="fill: rgb(38, 50, 56); transform-origin: 372.228px 193.897px;" id="elbe8b6oe485b" class="animable"></path><path d="M380,187.85l-1.37,3a2.42,2.42,0,0,1,.22,3.27c-1.83,2.27-1.66,6.77-.19,9,0,0,.43-1.1,1.29-.53s-1.07,2-1.43,6.05c0,0,2.58-1,4.57-4.77,2.87-5.46,5-9.89,4.55-12.47Z" style="fill: rgb(38, 50, 56); transform-origin: 382.609px 198.245px;" id="els5vzak90kc" class="animable"></path><path d="M365.12,204.54a18.33,18.33,0,0,1,1.1,2.57c.16,0,.33-.05.49-.09,2.19-.4,3.08-1.31,3.4-2.2a2.92,2.92,0,0,0,.11-1.35,3,3,0,0,0-.2-.76,10.55,10.55,0,0,1-4.15,1.68C365.42,204.49,365.12,204.54,365.12,204.54Z" style="fill: rgb(38, 50, 56); transform-origin: 367.687px 204.91px;" id="eln0oxrpmr36e" class="animable"></path><path d="M365.87,204.39l.34.75c2.07-.38,3.47-.93,4-1.67a3,3,0,0,0-.2-.76A10.55,10.55,0,0,1,365.87,204.39Z" style="fill: rgb(255, 255, 255); transform-origin: 368.04px 203.925px;" id="eloawnmraglva" class="animable"></path><path d="M366.71,207c2.19-.4,3.08-1.31,3.4-2.2a7.25,7.25,0,0,0-2.35.93A2.68,2.68,0,0,0,366.71,207Z" style="fill: rgb(222, 87, 83); transform-origin: 368.41px 205.9px;" id="elpnduvrrq9fm" class="animable"></path><path d="M366.36,183.46c-.58.64,0,3.69,2.54,5.72s.21-1.64.21-1.64,5.28,3.42,5.62,2.72-1.17-2.22-1.17-2.22,4.24,3.46,8.38,3.47-1.36-8.22-5.92-9.22S368.12,181.51,366.36,183.46Z" style="fill: rgb(38, 50, 56); transform-origin: 374.778px 186.608px;" id="elegmbpabuhg" class="animable"></path><path d="M366.36,183.46s14.59.93,19.34,15.1c0,0,3.31-5.76,3.27-8.64s-4.91-9.06-9.62-10.73S369.91,177.4,366.36,183.46Z" style="fill: rgb(106, 136, 122); transform-origin: 377.665px 188.382px;" id="elyb4nnfzqpki" class="animable"></path><path d="M369,183s1.63-3,3.21-2.8,3.34,1,3.58,1.54-.72,3.09-.72,3.09S371.64,182.54,369,183Z" style="fill: rgb(38, 50, 56); transform-origin: 372.414px 182.51px;" id="el4rbp66ve7dt" class="animable"></path><path d="M382.86,192.86l3.58,4s6.87,8.79,5.65,10.66-9.81-2.38-9.81-2.38c1.62-2.72,3.42-6.58,3.42-6.58C385.33,196.56,382.86,192.86,382.86,192.86Z" style="fill: rgb(106, 136, 122); transform-origin: 387.258px 200.428px;" id="el0x1xhc303bal" class="animable"></path><g id="elyhl9tzbuh5c"><path d="M382.86,192.86l3.58,4s6.87,8.79,5.65,10.66-9.81-2.38-9.81-2.38c1.62-2.72,3.42-6.58,3.42-6.58C385.33,196.56,382.86,192.86,382.86,192.86Z" style="opacity: 0.2; isolation: isolate; transform-origin: 387.258px 200.428px;" class="animable"></path></g><path d="M384.3,204.78a7,7,0,0,1-4.8,2.36c-2.45.15-3.16-2.17-2.05-4.22,1-1.8,3.49-4.13,5.74-3.29A3.13,3.13,0,0,1,384.3,204.78Z" style="fill: rgb(228, 137, 123); transform-origin: 381.081px 203.3px;" id="elkx39hsurneh" class="animable"></path><g id="elx391e6kqon"><path d="M432.44,411.64h9a.65.65,0,0,1,.62.51l1.46,6.56a1.09,1.09,0,0,1-.84,1.29.65.65,0,0,1-.24,0c-2.9,0-5-.22-8.64-.22-2.24,0-9,.23-12.1.23s-3.49-3-2.23-3.33c5.68-1.24,10-3,11.78-4.59A1.8,1.8,0,0,1,432.44,411.64Z" style="fill: rgb(255, 255, 255); opacity: 0.4; transform-origin: 431.171px 415.826px;" class="animable"></path></g><g id="ela3n9zvktkyj"><path d="M272.75,408.1l8.1,3.81a.65.65,0,0,1,.35.73l-1.48,6.56a1.09,1.09,0,0,1-1.3.81.92.92,0,0,1-.23-.09c-2.6-1.27-4.44-2.33-7.73-3.88-2-1-8.24-3.62-11-4.93s-1.86-4.26-.6-4c5.67,1.3,10.27,1.56,12.61.86A1.78,1.78,0,0,1,272.75,408.1Z" style="fill: rgb(255, 255, 255); opacity: 0.4; transform-origin: 269.433px 413.565px;" class="animable"></path></g></g></g><defs>     <filter id="active" height="200%">         <feMorphology in="SourceAlpha" result="DILATED" operator="dilate" radius="2"></feMorphology>                <feFlood flood-color="#32DFEC" flood-opacity="1" result="PINK"></feFlood>        <feComposite in="PINK" in2="DILATED" operator="in" result="OUTLINE"></feComposite>        <feMerge>            <feMergeNode in="OUTLINE"></feMergeNode>            <feMergeNode in="SourceGraphic"></feMergeNode>        </feMerge>    </filter>    <filter id="hover" height="200%">        <feMorphology in="SourceAlpha" result="DILATED" operator="dilate" radius="2"></feMorphology>                <feFlood flood-color="#ff0000" flood-opacity="0.5" result="PINK"></feFlood>        <feComposite in="PINK" in2="DILATED" operator="in" result="OUTLINE"></feComposite>        <feMerge>            <feMergeNode in="OUTLINE"></feMergeNode>            <feMergeNode in="SourceGraphic"></feMergeNode>        </feMerge>            <feColorMatrix type="matrix" values="0   0   0   0   0                0   1   0   0   0                0   0   0   0   0                0   0   0   1   0 "></feColorMatrix>    </filter></defs></svg>